# xmcd CD database file
#
# Track frame offsets:
#	150
#	18692
#	38637
#
# Disc length: 758 seconds
#
# Revision: 0
# Processed by: cddbd v1.5.1PL2 Copyright (c) Steve Scherf et al.
# Submitted via: CDex 1.51
#
DISCID=1c02f403
DTITLE=A-BOYS - 奴レボリューション
DYEAR=2005
DGENRE=JPop
TTITLE0=奴レボリューション
TTITLE1=いとしのヤツー
TTITLE2=奴レボリューション（カラオケ）
EXTD=YEAR: 2005
EXTT0=
EXTT1=
EXTT2=
PLAYORDER=
